<?xml version="1.0" encoding="UTF-8"?>
<svg
	width="24"
	height="24"
	viewBox="0 0 24 24"
	xmlns="http://www.w3.org/2000/svg">

	<!-- Taxi sign on top -->
	<path
		fill="#FFC107"
		d="M9,2h6c0.55,0 1,0.45 1,1v1c0,0.55 -0.45,1 -1,1H9C8.45,5 8,4.55 8,4V3C8,2.45 8.45,2 9,2z"/>

	<!-- Car body main -->
	<path
		fill="#FFC107"
		d="M18.92,7.01C18.72,6.42 18.16,6 17.5,6h-11C5.84,6 5.29,6.42 5.08,7.01L3,13v7c0,0.55 0.45,1 1,1h1c0.55,0 1,-0.45 1,-1v-1h12v1c0,0.55 0.45,1 1,1h1c0.55,0 1,-0.45 1,-1v-7L18.92,7.01z"/>

	<!-- Windshield -->
	<path
		fill="#424242"
		d="M6.5,7.5h11L19,11H5L6.5,7.5z"/>

	<!-- Left wheel -->
	<path
		fill="#212121"
		d="M6.5,17C5.67,17 5,16.33 5,15.5S5.67,14 6.5,14s1.5,0.67 1.5,1.5S7.33,17 6.5,17z"/>

	<!-- Left wheel inner -->
	<path
		fill="#616161"
		d="M6.5,16c-0.28,0 -0.5,-0.22 -0.5,-0.5s0.22,-0.5 0.5,-0.5 0.5,0.22 0.5,0.5S6.78,16 6.5,16z"/>

	<!-- Right wheel -->
	<path
		fill="#212121"
		d="M17.5,17c-0.83,0 -1.5,-0.67 -1.5,-1.5s0.67,-1.5 1.5,-1.5 1.5,0.67 1.5,1.5S18.33,17 17.5,17z"/>

	<!-- Right wheel inner -->
	<path
		fill="#616161"
		d="M17.5,16c-0.28,0 -0.5,-0.22 -0.5,-0.5s0.22,-0.5 0.5,-0.5 0.5,0.22 0.5,0.5S17.78,16 17.5,16z"/>

	<!-- Headlight left -->
	<path
		fill="#FFFFFF"
		d="M5,12h2v1H5z"/>

	<!-- Headlight right -->
	<path
		fill="#FFFFFF"
		d="M17,12h2v1H17z"/>

	<!-- Door line -->
	<path
		d="M12,11v8"
		stroke="#E65100"
		stroke-width="1"
		fill="none"/>
</svg>
